#N canvas 475 104 504 462 12;
#X obj 135 62 env~;
#X floatatom 135 88 5 0 0 0 - - - 0;
#X obj 211 24 adc~;
#X obj 32 75 vu 20 200 empty empty -1 -10 0 12 #404040 #000000 1 0;
#X obj 135 116 - 100;
#X obj 264 151 bonk~;
#X msg 264 115 minvel \$1;
#X obj 268 60 hsl 170 20 0 127 0 1 empty empty empty -2 -10 0 12 #fcfcfc #000000 #000000 4400 1;
#X obj 221 153 bng 20 250 50 0 empty empty empty 0 -10 0 12 #fcfcfc #000000 #000000;
#X floatatom 284 93 5 0 0 0 - - - 0;
#X floatatom 264 183 5 0 0 0 - - - 0;
#X obj 111 208 oscformat loudness;
#X obj 185 304 list prepend send;
#X obj 185 329 list trim;
#X obj 184 401 netsend -u -b;
#X msg 312 354 connect localhost 3000;
#X obj 313 329 loadbang;
#X obj 263 211 oscformat bonk;
#X connect 0 0 1 0;
#X connect 1 0 4 0;
#X connect 1 0 11 0;
#X connect 2 0 0 0;
#X connect 2 0 5 0;
#X connect 4 0 3 0;
#X connect 5 0 8 0;
#X connect 5 0 10 0;
#X connect 6 0 5 0;
#X connect 7 0 6 0;
#X connect 7 0 9 0;
#X connect 10 0 17 0;
#X connect 11 0 12 0;
#X connect 12 0 13 0;
#X connect 13 0 14 0;
#X connect 15 0 14 0;
#X connect 16 0 15 0;
#X connect 17 0 12 0;
