#N canvas 395 36 427 369 12;
#X obj 59 255 decimate~;
#X obj 82 153 hsl 128 15 0.02 1 0 1 empty empty ratio\ samplerate -2
-8 0 10 -262144 -1 -1 12700 1;
#X obj 236 155 hsl 128 15 4 32 0 1 empty empty bit\ depth -2 -8 0 10
-262144 -1 -1 900 1;
#X floatatom 236 185 5 0 0 0 - - -, f 5;
#X floatatom 104 180 5 0 0 0 - - -, f 5;
#X obj 13 11 inlet~;
#X obj 13 293 outlet~;
#X obj 121 11 inlet;
#X obj 233 11 inlet;
#X obj 83 95 / 127;
#X obj 235 112 expr ($f1/127*28)+4;
#X obj 13 42 spigot~;
#X obj 365 11 inlet;
#X connect 0 0 6 0;
#X connect 1 0 0 1;
#X connect 1 0 4 0;
#X connect 2 0 0 2;
#X connect 2 0 3 0;
#X connect 5 0 11 0;
#X connect 7 0 9 0;
#X connect 8 0 10 0;
#X connect 9 0 1 0;
#X connect 10 0 2 0;
#X connect 11 0 6 0;
#X connect 11 1 0 0;
#X connect 12 0 11 1;
