#N canvas 850 698 1099 580 12;
#X obj 102 141 moses 1;
#X floatatom 102 173 5 0 0 0 - - -, f 5;
#X floatatom 162 175 5 0 0 0 - - -, f 5;
#X msg 162 203 127;
#X obj 30 105 spigot;
#X obj 28 22 inlet;
#X obj 77 314 outlet;
#X obj 90 20 inlet;
#X obj 102 110 spigot;
#X obj 73 64 expr abs($f1-1);
#X floatatom 77 277 5 0 0 0 - - -, f 5;
#X obj 297 57 loadbang;
#X connect 0 0 1 0;
#X connect 0 1 2 0;
#X connect 1 0 10 0;
#X connect 2 0 3 0;
#X connect 3 0 10 0;
#X connect 4 0 10 0;
#X connect 5 0 4 0;
#X connect 5 0 8 0;
#X connect 7 0 9 0;
#X connect 7 0 8 1;
#X connect 8 0 0 0;
#X connect 9 0 4 1;
#X connect 10 0 6 0;
#X connect 11 0 9 0;
