#N canvas 398 1134 1094 577 12;
#X obj 338 30 inlet;
#X obj 414 412 outlet;
#X obj 493 30 inlet;
#X obj 418 30 inlet;
#X obj 396 202 expr $f1/exp($f2);
#X obj 494 263 expr $f1*exp($f2*$f3);
#X floatatom 329 82 5 0 0 0 - - -, f 5;
#X floatatom 527 329 5 0 0 0 - - -, f 5;
#X floatatom 317 162 5 0 0 0 - - -, f 5;
#X floatatom 682 192 5 0 0 0 - - -, f 5;
#X floatatom 392 267 5 0 0 0 - - -, f 5;
#X floatatom 567 57 5 0 0 0 - - -, f 5;
#X obj 550 141 expr $f2/$f1;
#X connect 0 0 5 2;
#X connect 0 0 6 0;
#X connect 2 0 4 0;
#X connect 2 0 5 1;
#X connect 2 0 11 0;
#X connect 2 0 12 1;
#X connect 3 0 8 0;
#X connect 3 0 12 0;
#X connect 4 0 5 0;
#X connect 4 0 10 0;
#X connect 5 0 7 0;
#X connect 7 0 1 0;
#X connect 12 0 4 1;
#X connect 12 0 9 0;
