#N canvas 10 720 470 491 10;
#X obj 62 28 inlet;
#X obj 101 232 outlet;
#X obj 62 52 expr (pow(10 \, (($f1)/(127))*log10(127/1))-1)/127*128.01
;
#X obj 62 75 moses 127;
#X msg 113 99 127;
#X floatatom 62 128 5 0 0 0 - - -, f 5;
#X obj 62 151 moses 0;
#X msg 62 175 0;
#X floatatom 101 206 5 0 0 0 - - -, f 5;
#X connect 0 0 2 0;
#X connect 2 0 3 0;
#X connect 3 0 5 0;
#X connect 3 1 4 0;
#X connect 4 0 5 0;
#X connect 5 0 6 0;
#X connect 6 0 7 0;
#X connect 6 1 8 0;
#X connect 7 0 8 0;
#X connect 8 0 1 0;
