#N canvas 980 786 964 918 12;
#X obj 175 18 inlet;
#X obj 160 130 sel 0;
#X msg 106 452 stop;
#X obj 168 533 delay;
#X obj 169 677 route 0;
#X obj 170 864 outlet~;
#X obj 165 425 t b b b;
#X obj 852 98 vsl 15 128 10 10010 1 1 empty empty release\ [ms] 0 -9
0 10 -262144 -1 -1 6300 1;
#X obj 170 779 line~;
#X obj 318 117 vsl 15 128 10 10010 1 1 empty empty attack\ [ms] 0 -9
0 10 -262144 -1 -1 4013 1;
#X obj 462 93 vsl 15 128 10 10010 1 1 empty empty decay\ [ms] 0 -9
0 10 -262144 -1 -1 4400 1;
#X obj 271 300 + 1;
#X obj 422 574 0, f 2;
#X floatatom 851 297 5 0 0 0 - - -, f 5;
#X floatatom 270 349 5 0 0 0 - - -, f 5;
#X floatatom 462 295 5 0 0 0 - - -, f 5;
#X obj 392 636 / 127;
#X floatatom 358 766 5 0 0 0 - - -, f 5;
#X obj 170 828 *~;
#X obj 668 94 vsl 15 128 0.011 1.1 1 1 empty empty sustain\ [0...1]
0 -9 0 10 -262144 -1 -1 11200 1;
#X floatatom 668 294 5 0 0 0 - - -, f 5;
#X obj 668 254 - 0.011;
#X obj 851 260 - 10;
#X obj 317 280 - 10;
#X msg 230 496 1;
#X obj 277 625 pack f f;
#X obj 170 607 pack f f f;
#X obj 25 424 pack f f;
#X obj 462 252 - 10;
#N canvas 0 0 450 300 (subpatch) 0;
#X array array4 100 float 3 black black;
#A 0 0 0 0 0 0 0 0 0 0 0 0 0 0 0 0 0 0 0 0 0 0 0 0 0 0 0 0 0 0 0 0
0 0 0 0 0 0 0 0 0 0 0 0 0 0 0 0 0 0 0 0 0 0 0 0 0 0 0 0 0 0 0 0 0 0
0 0 0 0 0 0 0 0 0 0 0 0 0 0 0 0 0 0 0 0 0 0 0 0 0 0 0 0 0 0 0 0 0 0
0;
#X coords 0 1 100 -1 200 140 1;
#X restore 666 673 graph;
#X obj 466 618 tgl 15 0 empty empty empty 17 7 0 10 -262144 -1 -1 0
1;
#X obj 465 666 metro 100;
#X obj 465 720 tabwrite~ array4;
#X obj 315 18 inlet;
#X obj 465 16 inlet;
#X obj 669 18 inlet;
#X obj 848 22 inlet;
#X obj 270 65 expr $f1/127*10000+10;
#X obj 458 49 expr $f1/127*10000+10;
#X obj 801 52 expr $f1/127*10000+10;
#X obj 631 52 expr $f1/127;
#X connect 0 0 1 0;
#X connect 1 0 27 0;
#X connect 1 0 2 0;
#X connect 1 1 6 0;
#X connect 1 1 16 0;
#X connect 2 0 3 0;
#X connect 3 0 26 0;
#X connect 4 0 8 0;
#X connect 6 0 3 0;
#X connect 6 1 24 0;
#X connect 6 2 12 0;
#X connect 7 0 22 0;
#X connect 8 0 18 0;
#X connect 8 0 32 0;
#X connect 9 0 23 0;
#X connect 10 0 28 0;
#X connect 11 0 14 0;
#X connect 12 0 8 0;
#X connect 13 0 27 1;
#X connect 14 0 3 1;
#X connect 15 0 26 2;
#X connect 16 0 17 0;
#X connect 17 0 18 1;
#X connect 18 0 5 0;
#X connect 19 0 21 0;
#X connect 20 0 26 1;
#X connect 21 0 20 0;
#X connect 22 0 13 0;
#X connect 23 0 11 0;
#X connect 23 0 25 1;
#X connect 24 0 25 0;
#X connect 25 0 8 0;
#X connect 26 0 4 0;
#X connect 27 0 8 0;
#X connect 28 0 15 0;
#X connect 30 0 31 0;
#X connect 31 0 32 0;
#X connect 33 0 37 0;
#X connect 34 0 38 0;
#X connect 35 0 40 0;
#X connect 36 0 39 0;
#X connect 37 0 9 0;
#X connect 38 0 10 0;
#X connect 39 0 7 0;
#X connect 40 0 19 0;
