#N canvas 0 698 2000 1049 12;
#X obj 62 188 pack f f f;
#X obj 62 259 unpack f f;
#X obj 51 324 mtof;
#X obj 164 1003 dac~;
#X obj 70 529 *~;
#X obj 92 324 midiadsr;
#N canvas 0 0 450 300 (subpatch) 0;
#X array polysynth_array 100 float 3 black black;
#A 0 0 0 0 0 0 0 0 0 0 0 0 0 0 0 0 0 0 0 0 0 0 0 0 0 0 0 0 0 0 0 0
0 0 0 0 0 0 0 0 0 0 0 0 0 0 0 0 0 0 0 0 0 0 0 0 0 0 0 0 0 0 0 0 0 0
0 0 0 0 0 0 0 0 0 0 0 0 0 0 0 0 0 0 0 0 0 0 0 0 0 0 0 0 0 0 0 0 0 0
0;
#X coords 0 1 100 -1 200 140 1;
#X restore 226 872 graph;
#X obj 255 796 metro 100;
#X obj 62 224 route 1 2 3 4;
#X obj 181 260 unpack f f;
#X obj 170 325 mtof;
#X obj 191 531 *~;
#X obj 213 325 midiadsr;
#X obj 301 260 unpack f f;
#X obj 290 325 mtof;
#X obj 313 531 *~;
#X obj 335 326 midiadsr;
#X obj 424 262 unpack f f;
#X obj 413 327 mtof;
#X obj 434 533 *~;
#X obj 456 328 midiadsr;
#X obj 63 156 poly 4 1;
#X obj 47 497 synth_sine;
#X obj 166 498 synth_sine;
#X obj 286 498 synth_sine;
#X obj 409 500 synth_sine;
#X obj 1487 21 adc~;
#X obj 1478 815 dac~;
#X obj 1727 349 midiout;
#X msg 1799 44 252;
#X msg 1700 44 250;
#X msg 1767 281 248;
#X msg 1750 44 251;
#X obj 1854 118 nbx 5 14 1 1000 0 1 empty empty BPM 0 -8 0 10 -262144
-1 -262144 110.703 256 0;
#X text 1691 10 start//continue//stop;
#X obj 62 0 notein 1;
#X obj 724 186 pack f f f;
#X obj 724 286 unpack f f;
#X obj 724 321 mtof;
#X obj 882 945 dac~;
#X obj 757 462 *~;
#X obj 941 269 midiadsr;
#N canvas 0 0 450 300 (subpatch) 0;
#X array monosynth_array 100 float 3 black black;
#A 0 -0.153356 -0.153007 -0.152657 -0.152301 -0.151943 -0.151581 -0.151214
-0.150846 -0.150471 -0.150095 -0.149713 -0.149329 -0.148941 -0.148548
-0.148155 -0.147753 -0.147352 -0.146944 -0.146533 -0.14612 -0.1457
-0.145281 -0.144853 -0.144426 -0.143992 -0.143555 -0.143115 -0.14267
-0.142225 -0.141771 -0.141317 -0.140857 -0.140394 -0.139929 -0.139457
-0.138986 -0.138506 -0.138026 -0.13754 -0.137051 -0.13656 -0.136062
-0.135565 -0.135059 -0.134552 -0.134041 -0.133526 -0.133009 -0.132485
-0.131961 -0.13143 -0.130897 -0.13036 -0.129819 -0.129276 -0.128727
-0.128177 -0.12762 -0.127062 -0.126499 -0.125932 -0.125364 -0.124788
-0.124213 -0.12363 -0.123046 -0.122458 -0.121865 -0.121272 -0.120671
-0.120069 -0.119462 -0.118852 -0.118239 -0.117621 -0.117002 -0.116375
-0.115749 -0.115116 -0.114481 -0.113843 -0.113199 -0.112556 -0.111904
-0.111252 -0.110595 -0.109935 -0.109272 -0.108604 -0.107935 -0.107259
-0.106582 -0.1059 -0.105215 -0.104528 -0.103835 -0.103142 -0.102441
-0.10174 -0.101034;
#X coords 0 1 100 -1 200 140 1;
#X restore 984 814 graph;
#X obj 1008 725 metro 100;
#X obj 716 27 notein 2;
#X obj 724 154 poly 1 1;
#X obj 983 769 tabwrite~ monosynth_array;
#X obj 162 973 *~;
#X obj 880 905 *~;
#X obj 802 766 vsl 15 128 0.02 2 1 1 empty empty empty 0 -9 0 10 -262144
-1 -1 10600 1;
#X obj 88 862 vsl 15 128 0.02 2 1 1 empty empty empty 0 -9 0 10 -262144
-1 -1 12700 1;
#X floatatom 88 1004 5 0 0 0 - - -, f 5;
#X floatatom 801 917 5 0 0 0 - - -, f 5;
#X obj 852 763 /~ 4;
#X obj 222 566 /~ 4;
#X obj 1785 162 bng 15 250 50 0 empty empty empty 17 7 0 10 -262144
-1 -1;
#X obj 1883 190 / 24;
#X obj 1855 145 expr (60000/$f1);
#X obj 1767 248 metro;
#X obj 1821 179 metro;
#X obj 1808 210 bng 15 250 50 0 empty empty empty 17 7 0 10 -262144
-1 -1;
#X obj 1376 555 overdrive;
#X obj 1377 450 bitcrusher;
#X obj 1562 453 bitcrusher;
#X obj 1528 555 overdrive;
#X obj 1457 698 reverb;
#X obj 238 833 tabwrite~ polysynth_array;
#X obj 724 225 route 1;
#X obj 1767 85 loadbang;
#X obj 1912 9 t b b;
#X obj 1851 45 timer;
#X obj 1870 10 bng 15 250 50 0 empty empty empty 0 -6 0 10 -262144
-1 -1;
#X obj 1852 77 expr 60000 / $f1;
#X obj 1767 312 bng 15 250 50 0 empty empty empty 17 7 0 10 -262144
-1 -1;
#X obj 176 640 bitcrusher;
#X obj 205 774 *~ 1;
#X floatatom 259 638 5 0 0 0 - - -, f 5;
#X floatatom 343 638 5 0 0 0 - - -, f 5;
#X floatatom 64 806 5 0 0 0 - - -, f 5;
#X obj 64 832 expr $f1/127*2;
#X obj 175 678 overdrive;
#X floatatom 254 679 5 0 0 0 - - -, f 5;
#X floatatom 345 676 5 0 0 0 - - -, f 5;
#X obj 173 726 reverb;
#X floatatom 274 725 5 0 0 0 - - -, f 5;
#X floatatom 360 723 5 0 0 0 - - -, f 5;
#X floatatom 442 722 5 0 0 0 - - -, f 5;
#X obj 958 15 ctlin 1;
#X floatatom 958 65 5 0 0 0 - - -, f 5;
#X obj 958 88 s p1;
#X obj 64 774 r p1;
#X obj 302 637 r p2;
#X obj 386 637 r p3;
#X obj 387 676 r p5;
#X obj 297 678 r p4;
#X obj 319 724 r p6;
#X obj 405 722 r p7;
#X obj 497 722 r p8;
#X floatatom 846 219 5 0 0 0 - - -, f 5;
#X obj 465 638 tgl 15 0 empty empty empty 17 7 0 10 -262144 -1 -1 0
118;
#X obj 481 674 tgl 15 0 empty empty empty 17 7 0 10 -262144 -1 -1 0
1;
#X obj 537 724 tgl 15 0 empty empty empty 17 7 0 10 -262144 -1 -1 0
1;
#X obj 115 34 fullvel;
#X obj 161 12 tgl 15 0 empty empty empty 17 7 0 10 -262144 -1 -1 0
1;
#X obj 800 129 fullvel;
#X obj 854 17 tgl 15 0 empty empty empty 17 7 0 10 -262144 -1 -1 0
1;
#X floatatom 863 287 5 0 0 0 - - -, f 5;
#X obj 791 353 *;
#X obj 852 339 expr 1+0.01*$f1;
#X obj 750 397 synth_saw;
#X obj 831 377 synth_saw;
#X obj 653 296 mtof;
#X obj 639 338 synth_sine;
#X obj 788 548 overdrive;
#X floatatom 854 492 5 0 0 0 - - -, f 5;
#X floatatom 938 492 5 0 0 0 - - -, f 5;
#X obj 897 491 r p2;
#X obj 981 491 r p3;
#X obj 947 536 tgl 15 0 empty empty empty 17 7 0 10 -262144 -1 -1 0
1;
#X obj 659 67 - 24;
#X floatatom 651 129 5 0 0 0 - - -, f 5;
#X obj 652 261 - 12;
#X obj 1632 823 ctlin;
#X obj 1789 855 pgmin;
#X floatatom 1580 898 5 0 0 0 - - -, f 5;
#X floatatom 1643 952 5 0 0 0 - - -, f 5;
#X floatatom 1692 920 5 0 0 0 - - -, f 5;
#X floatatom 1812 952 5 0 0 0 - - -, f 5;
#X floatatom 1902 932 5 0 0 0 - - -, f 5;
#X obj 1007 669 tgl 15 0 empty empty empty 17 7 0 10 -262144 -1 -1
0 1;
#X obj 1007 693;
#X obj 1007 693;
#X floatatom 128 61 5 0 0 0 - - -, f 5;
#X obj 507 590 ctlin 9;
#X obj 270 764 tgl 15 0 empty empty empty 17 7 0 10 -262144 -1 -1 0
1;
#X obj 220 107 r p2;
#X obj 415 116 r p5;
#X obj 408 459 +;
#X obj 445 353 r p7;
#X obj 417 402 bng 15 250 50 0 empty empty empty 17 7 0 10 -262144
-1 -1;
#X floatatom 410 425 5 0 0 0 - - -, f 5;
#X obj 48 461 +;
#X obj 85 355 r p7;
#X obj 57 404 bng 15 250 50 0 empty empty empty 17 7 0 10 -262144 -1
-1;
#X floatatom 50 427 5 0 0 0 - - -, f 5;
#X obj 162 461 +;
#X obj 199 355 r p7;
#X obj 171 404 bng 15 250 50 0 empty empty empty 17 7 0 10 -262144
-1 -1;
#X floatatom 164 427 5 0 0 0 - - -, f 5;
#X obj 287 458 +;
#X obj 324 352 r p7;
#X obj 296 401 bng 15 250 50 0 empty empty empty 17 7 0 10 -262144
-1 -1;
#X floatatom 289 424 5 0 0 0 - - -, f 5;
#X obj 1089 391 vsl 15 128 1.27 127 1 0 empty empty empty 0 -9 0 10
-262144 -1 -1 0 1;
#X floatatom 1081 599 5 0 0 0 - - -, f 5;
#X obj 1162 297 vsl 15 128 0 127 0 0 empty empty empty 0 -9 0 10 -262144
-1 -1 12700 1;
#X floatatom 1198 622 5 0 0 0 - - -, f 5;
#X floatatom 1184 472 5 0 0 0 - - -, f 5;
#N canvas 775 746 450 301 logizer 0;
#X obj 39 37 inlet;
#X obj 55 177 outlet;
#X obj 42 102 expr pow(10 \, (($f1)/(127))*log10(127/1))/127*128-1
;
#X connect 0 0 2 0;
#X connect 2 0 1 0;
#X restore 1179 535 pd logizer;
#N canvas 433 925 451 302 logizer 1;
#X obj 39 37 inlet;
#X obj 73 212 outlet;
#X floatatom 204 159 5 0 0 0 - - -, f 5;
#X obj 42 101 expr (pow(10 \, (($f1)/(127))*log10(127/1))-1)/127*128.01
;
#X connect 0 0 3 0;
#X connect 3 0 2 0;
#X connect 3 0 1 0;
#X restore 1004 41 pd logizer;
#X floatatom 1004 65 5 0 0 0 - - -, f 5;
#X obj 1004 88 s pl1;
#X floatatom 1218 65 5 0 0 0 - - -, f 5;
#N canvas 433 925 451 302 logizer 0;
#X obj 39 37 inlet;
#X obj 73 212 outlet;
#X floatatom 204 159 5 0 0 0 - - -, f 5;
#X obj 42 101 expr (pow(10 \, (($f1)/(127))*log10(127/1))-1)/127*128.01
;
#X connect 0 0 3 0;
#X connect 3 0 2 0;
#X connect 3 0 1 0;
#X restore 1264 41 pd logizer;
#X floatatom 1264 65 5 0 0 0 - - -, f 5;
#X floatatom 958 175 5 0 0 0 - - -, f 5;
#N canvas 433 925 451 302 logizer 0;
#X obj 39 37 inlet;
#X obj 73 212 outlet;
#X floatatom 204 159 5 0 0 0 - - -, f 5;
#X obj 42 101 expr (pow(10 \, (($f1)/(127))*log10(127/1))-1)/127*128.01
;
#X connect 0 0 3 0;
#X connect 3 0 2 0;
#X connect 3 0 1 0;
#X restore 1004 151 pd logizer;
#X floatatom 1004 175 5 0 0 0 - - -, f 5;
#X floatatom 1088 175 5 0 0 0 - - -, f 5;
#N canvas 433 925 451 302 logizer 0;
#X obj 39 37 inlet;
#X obj 73 212 outlet;
#X floatatom 204 159 5 0 0 0 - - -, f 5;
#X obj 42 101 expr (pow(10 \, (($f1)/(127))*log10(127/1))-1)/127*128.01
;
#X connect 0 0 3 0;
#X connect 3 0 2 0;
#X connect 3 0 1 0;
#X restore 1134 151 pd logizer;
#X floatatom 1134 175 5 0 0 0 - - -, f 5;
#X floatatom 1218 175 5 0 0 0 - - -, f 5;
#N canvas 433 925 451 302 logizer 0;
#X obj 39 37 inlet;
#X obj 73 212 outlet;
#X floatatom 204 159 5 0 0 0 - - -, f 5;
#X obj 42 101 expr (pow(10 \, (($f1)/(127))*log10(127/1))-1)/127*128.01
;
#X connect 0 0 3 0;
#X connect 3 0 2 0;
#X connect 3 0 1 0;
#X restore 1264 151 pd logizer;
#X floatatom 1264 175 5 0 0 0 - - -, f 5;
#X floatatom 1088 65 5 0 0 0 - - -, f 5;
#N canvas 433 925 451 302 logizer 0;
#X obj 39 37 inlet;
#X obj 73 212 outlet;
#X floatatom 204 159 5 0 0 0 - - -, f 5;
#X obj 42 101 expr (pow(10 \, (($f1)/(127))*log10(127/1))-1)/127*128.01
;
#X connect 0 0 3 0;
#X connect 3 0 2 0;
#X connect 3 0 1 0;
#X restore 1134 41 pd logizer;
#X floatatom 1134 65 5 0 0 0 - - -, f 5;
#X obj 1088 15 ctlin 2;
#X obj 1218 15 ctlin 3;
#X obj 1218 125 ctlin 7;
#X obj 1088 125 ctlin 6;
#X obj 958 125 ctlin 5;
#X floatatom 1348 65 5 0 0 0 - - -, f 5;
#N canvas 433 925 451 302 logizer 0;
#X obj 39 37 inlet;
#X obj 73 212 outlet;
#X floatatom 204 159 5 0 0 0 - - -, f 5;
#X obj 42 101 expr (pow(10 \, (($f1)/(127))*log10(127/1))-1)/127*128.01
;
#X connect 0 0 3 0;
#X connect 3 0 2 0;
#X connect 3 0 1 0;
#X restore 1394 41 pd logizer;
#X floatatom 1394 65 5 0 0 0 - - -, f 5;
#X floatatom 1348 175 5 0 0 0 - - -, f 5;
#N canvas 433 925 451 302 logizer 0;
#X obj 39 37 inlet;
#X obj 73 212 outlet;
#X floatatom 204 159 5 0 0 0 - - -, f 5;
#X obj 42 101 expr (pow(10 \, (($f1)/(127))*log10(127/1))-1)/127*128.01
;
#X connect 0 0 3 0;
#X connect 3 0 2 0;
#X connect 3 0 1 0;
#X restore 1394 151 pd logizer;
#X floatatom 1394 175 5 0 0 0 - - -, f 5;
#X obj 1348 15 ctlin 4;
#X obj 1348 125 ctlin 8;
#X obj 1088 88 s p2;
#X obj 1134 88 s pl2;
#X obj 1218 88 s p3;
#X obj 1264 88 s pl3;
#X obj 1348 88 s p4;
#X obj 1394 88 s pl4;
#X obj 958 198 s p5;
#X obj 1004 198 s pl5;
#X obj 1088 198 s p6;
#X obj 1134 198 s pl6;
#X obj 1218 198 s p7;
#X obj 1264 198 s pl7;
#X obj 1348 198 s p8;
#X obj 1394 198 s pl8;
#X connect 0 0 8 0;
#X connect 1 0 2 0;
#X connect 1 1 5 0;
#X connect 2 0 144 0;
#X connect 4 0 54 0;
#X connect 5 0 4 1;
#X connect 7 0 66 0;
#X connect 8 0 1 0;
#X connect 8 1 9 0;
#X connect 8 2 13 0;
#X connect 8 3 17 0;
#X connect 9 0 10 0;
#X connect 9 1 12 0;
#X connect 10 0 148 0;
#X connect 11 0 54 0;
#X connect 12 0 11 1;
#X connect 13 0 14 0;
#X connect 13 1 16 0;
#X connect 14 0 152 0;
#X connect 15 0 54 0;
#X connect 16 0 15 1;
#X connect 17 0 18 0;
#X connect 17 1 20 0;
#X connect 18 0 140 0;
#X connect 19 0 54 0;
#X connect 20 0 19 1;
#X connect 21 0 0 0;
#X connect 21 1 0 1;
#X connect 21 2 0 2;
#X connect 22 0 4 0;
#X connect 23 0 11 0;
#X connect 24 0 15 0;
#X connect 25 0 19 0;
#X connect 26 0 62 0;
#X connect 26 1 63 0;
#X connect 29 0 28 0;
#X connect 30 0 28 0;
#X connect 30 0 55 0;
#X connect 31 0 73 0;
#X connect 31 0 28 0;
#X connect 32 0 28 0;
#X connect 33 0 57 0;
#X connect 35 0 21 0;
#X connect 35 1 102 0;
#X connect 36 0 67 0;
#X connect 37 0 38 0;
#X connect 37 0 121 0;
#X connect 37 1 41 0;
#X connect 38 0 107 0;
#X connect 38 0 109 0;
#X connect 40 0 113 0;
#X connect 41 0 40 1;
#X connect 43 0 46 0;
#X connect 44 0 119 0;
#X connect 44 1 104 0;
#X connect 45 0 36 0;
#X connect 45 1 36 1;
#X connect 45 2 36 2;
#X connect 47 0 3 0;
#X connect 47 0 3 1;
#X connect 48 0 39 1;
#X connect 48 0 39 0;
#X connect 49 0 52 0;
#X connect 50 0 51 0;
#X connect 51 0 47 1;
#X connect 52 0 48 1;
#X connect 53 0 46 0;
#X connect 53 0 48 0;
#X connect 54 0 74 0;
#X connect 55 0 58 0;
#X connect 55 0 59 0;
#X connect 56 0 58 1;
#X connect 57 0 56 0;
#X connect 57 0 59 1;
#X connect 58 0 31 0;
#X connect 59 0 60 0;
#X connect 61 0 65 0;
#X connect 62 0 61 0;
#X connect 63 0 64 0;
#X connect 64 0 65 1;
#X connect 65 0 27 0;
#X connect 65 1 27 1;
#X connect 67 0 37 0;
#X connect 68 0 55 0;
#X connect 69 0 70 0;
#X connect 69 1 70 1;
#X connect 70 0 72 0;
#X connect 71 0 69 0;
#X connect 72 0 33 0;
#X connect 74 0 80 0;
#X connect 75 0 66 0;
#X connect 75 0 47 0;
#X connect 76 0 74 1;
#X connect 77 0 74 2;
#X connect 78 0 79 0;
#X connect 79 0 50 0;
#X connect 80 0 83 0;
#X connect 80 0 83 1;
#X connect 81 0 80 1;
#X connect 82 0 80 2;
#X connect 83 0 75 0;
#X connect 83 1 75 0;
#X connect 84 0 83 2;
#X connect 85 0 83 3;
#X connect 86 0 83 4;
#X connect 86 0 83 5;
#X connect 87 0 88 0;
#X connect 87 0 159 0;
#X connect 88 0 89 0;
#X connect 90 0 78 0;
#X connect 91 0 76 0;
#X connect 92 0 77 0;
#X connect 93 0 82 0;
#X connect 94 0 81 0;
#X connect 95 0 84 0;
#X connect 96 0 85 0;
#X connect 97 0 86 0;
#X connect 98 0 41 1;
#X connect 99 0 74 3;
#X connect 100 0 80 3;
#X connect 101 0 83 6;
#X connect 102 0 21 1;
#X connect 102 0 132 0;
#X connect 103 0 102 1;
#X connect 104 0 45 1;
#X connect 105 0 104 1;
#X connect 106 0 108 0;
#X connect 107 0 110 0;
#X connect 108 0 107 1;
#X connect 109 0 40 0;
#X connect 110 0 40 0;
#X connect 111 0 112 0;
#X connect 112 0 40 0;
#X connect 113 0 53 0;
#X connect 114 0 113 1;
#X connect 115 0 113 2;
#X connect 116 0 114 0;
#X connect 117 0 115 0;
#X connect 118 0 113 3;
#X connect 119 0 45 0;
#X connect 119 0 120 0;
#X connect 121 0 111 0;
#X connect 122 0 124 0;
#X connect 122 1 125 0;
#X connect 122 2 126 0;
#X connect 123 0 127 0;
#X connect 123 1 128 0;
#X connect 129 0 43 0;
#X connect 129 0 130 0;
#X connect 129 0 131 0;
#X connect 133 0 99 0;
#X connect 134 0 7 0;
#X connect 135 0 5 1;
#X connect 135 0 12 1;
#X connect 135 0 16 1;
#X connect 135 0 20 1;
#X connect 136 0 5 4;
#X connect 136 0 12 4;
#X connect 136 0 16 4;
#X connect 136 0 20 4;
#X connect 137 0 25 0;
#X connect 138 0 137 1;
#X connect 138 0 139 0;
#X connect 139 0 140 0;
#X connect 140 0 137 0;
#X connect 141 0 22 0;
#X connect 142 0 141 1;
#X connect 142 0 143 0;
#X connect 143 0 144 0;
#X connect 144 0 141 0;
#X connect 145 0 23 0;
#X connect 146 0 145 1;
#X connect 146 0 147 0;
#X connect 147 0 148 0;
#X connect 148 0 145 0;
#X connect 149 0 24 0;
#X connect 150 0 149 1;
#X connect 150 0 151 0;
#X connect 151 0 152 0;
#X connect 152 0 149 0;
#X connect 153 0 154 0;
#X connect 155 0 157 0;
#X connect 155 0 158 0;
#X connect 158 0 156 0;
#X connect 159 0 160 0;
#X connect 160 0 161 0;
#X connect 162 0 192 0;
#X connect 163 0 164 0;
#X connect 164 0 193 0;
#X connect 165 0 196 0;
#X connect 166 0 167 0;
#X connect 167 0 197 0;
#X connect 168 0 198 0;
#X connect 169 0 170 0;
#X connect 170 0 199 0;
#X connect 171 0 200 0;
#X connect 172 0 173 0;
#X connect 173 0 201 0;
#X connect 174 0 190 0;
#X connect 175 0 176 0;
#X connect 176 0 191 0;
#X connect 177 0 174 0;
#X connect 177 0 175 0;
#X connect 178 0 162 0;
#X connect 178 0 163 0;
#X connect 179 0 171 0;
#X connect 179 0 172 0;
#X connect 180 0 168 0;
#X connect 180 0 169 0;
#X connect 181 0 165 0;
#X connect 181 0 166 0;
#X connect 182 0 194 0;
#X connect 183 0 184 0;
#X connect 184 0 195 0;
#X connect 185 0 202 0;
#X connect 186 0 187 0;
#X connect 187 0 203 0;
#X connect 188 0 182 0;
#X connect 188 0 183 0;
#X connect 189 0 185 0;
#X connect 189 0 186 0;
