#N canvas 0 698 2000 1049 12;
#X obj 62 188 pack f f f;
#X obj 62 259 unpack f f;
#X obj 51 324 mtof;
#X obj 164 1003 dac~;
#X obj 73 529 *~;
#X obj 92 324 midiadsr;
#X obj 62 224 route 1 2 3 4;
#X obj 181 260 unpack f f;
#X obj 170 325 mtof;
#X obj 194 531 *~;
#X obj 213 325 midiadsr;
#X obj 301 260 unpack f f;
#X obj 290 325 mtof;
#X obj 316 531 *~;
#X obj 335 326 midiadsr;
#X obj 424 262 unpack f f;
#X obj 413 327 mtof;
#X obj 437 533 *~;
#X obj 456 329 midiadsr;
#X obj 63 156 poly 4 1;
#X obj 51 497 synth_sine;
#X obj 165 498 synth_sine;
#X obj 290 498 synth_sine;
#X obj 411 500 synth_sine;
#X obj 1487 21 adc~;
#X obj 1478 815 dac~;
#X obj 1727 349 midiout;
#X msg 1799 44 252;
#X msg 1700 44 250;
#X msg 1767 281 248;
#X msg 1750 44 251;
#X obj 1854 118 nbx 5 14 1 1000 0 1 empty empty BPM 0 -8 0 10 -262144
-1 -262144 229.688 256 0;
#X text 1691 10 start//continue//stop;
#X obj 62 0 notein 1;
#X obj 724 186 pack f f f;
#X obj 724 286 unpack f f;
#X obj 724 321 mtof;
#X obj 882 945 dac~;
#X obj 757 462 *~;
#X obj 783 320 midiadsr;
#N canvas 0 0 450 300 (subpatch) 0;
#X array out_array 100 float 3 black black;
#A 0 0 0 0 0 0 0 0 0 0 0 0 0 0 0 0 0 0 0 0 0 0 0 0 0 0 0 0 0 0 0 0
0 0 0 0 0 0 0 0 0 0 0 0 0 0 0 0 0 0 0 0 0 0 0 0 0 0 0 0 0 0 0 0 0 0
0 0 0 0 0 0 0 0 0 0 0 0 0 0 0 0 0 0 0 0 0 0 0 0 0 0 0 0 0 0 0 0 0 0
0;
#X coords 0 1 100 -1 200 140 1;
#X restore 984 814 graph;
#X obj 1008 725 metro 100;
#X obj 716 27 notein 2;
#X obj 724 154 poly 1 1;
#X obj 162 973 *~;
#X obj 880 905 *~;
#X obj 802 766 vsl 15 128 0.02 2 1 1 empty empty empty 0 -9 0 10 -262144
-1 -1 0 1;
#X obj 76 783 vsl 15 128 0.02 2 1 1 empty empty empty 0 -9 0 10 -262144
-1 -1 9173 1;
#X floatatom 88 1004 5 0 0 0 - - -, f 5;
#X floatatom 772 954 5 0 0 0 - - -, f 5;
#X obj 852 763 /~ 4;
#X obj 222 566 /~ 4;
#X obj 1785 162 bng 15 250 50 0 empty empty empty 17 7 0 10 -262144
-1 -1;
#X obj 1883 190 / 24;
#X obj 1855 145 expr (60000/$f1);
#X obj 1767 248 metro;
#X obj 1821 179 metro;
#X obj 1808 210 bng 15 250 50 0 empty empty empty 17 7 0 10 -262144
-1 -1;
#X obj 1137 371 overdrive;
#X obj 1137 233 bitcrusher;
#X obj 1159 254 bitcrusher;
#X obj 1159 392 overdrive;
#X obj 1457 698 reverb;
#X obj 724 225 route 1;
#X obj 1767 85 loadbang;
#X obj 1912 9 t b b;
#X obj 1851 45 timer;
#X obj 1870 10 bng 15 250 50 0 empty empty empty 0 -6 0 10 -262144
-1 -1;
#X obj 1852 77 expr 60000 / $f1;
#X obj 176 640 bitcrusher;
#X obj 205 774 *~ 1;
#X floatatom 259 638 5 0 0 0 - - -, f 5;
#X floatatom 343 638 5 0 0 0 - - -, f 5;
#X floatatom 52 727 5 0 0 0 - - -, f 5;
#X obj 52 753 expr $f1/127*2;
#X obj 175 678 overdrive;
#X floatatom 254 679 5 0 0 0 - - -, f 5;
#X floatatom 345 676 5 0 0 0 - - -, f 5;
#X obj 173 726 reverb;
#X floatatom 274 725 5 0 0 0 - - -, f 5;
#X floatatom 360 723 5 0 0 0 - - -, f 5;
#X floatatom 442 722 5 0 0 0 - - -, f 5;
#X obj 302 637 r p2;
#X obj 386 637 r p3;
#X obj 387 676 r p5;
#X obj 297 678 r p4;
#X obj 319 724 r p6;
#X obj 405 722 r p7;
#X obj 497 722 r p8;
#X obj 465 638 tgl 15 0 empty empty empty 17 7 0 10 -262144 -1 -1 0
127;
#X obj 481 674 tgl 15 0 empty empty empty 17 7 0 10 -262144 -1 -1 0
118;
#X obj 537 724 tgl 15 0 empty empty empty 17 7 0 10 -262144 -1 -1 0
68;
#X obj 115 34 fullvel;
#X obj 161 12 tgl 15 0 empty empty empty 17 7 0 10 -262144 -1 -1 1
1;
#X obj 800 129 fullvel;
#X obj 854 17 tgl 15 0 empty empty empty 17 7 0 10 -262144 -1 -1 0
1;
#X floatatom 863 287 5 0 0 0 - - -, f 5;
#X obj 791 353 *;
#X obj 852 339 expr 1+0.01*$f1;
#X obj 750 397 synth_saw;
#X obj 831 377 synth_saw;
#X obj 653 296 mtof;
#X obj 639 338 synth_sine;
#X obj 788 548 overdrive;
#X floatatom 836 470 5 0 0 0 - - -, f 5;
#X floatatom 920 470 5 0 0 0 - - -, f 5;
#X obj 879 469 r p2;
#X obj 963 469 r p3;
#X obj 947 536 tgl 15 0 empty empty empty 17 7 0 10 -262144 -1 -1 0
1;
#X obj 652 261 - 12;
#X obj 1632 823 ctlin;
#X obj 1789 855 pgmin;
#X floatatom 1580 898 5 0 0 0 - - -, f 5;
#X floatatom 1643 952 5 0 0 0 - - -, f 5;
#X floatatom 1692 920 5 0 0 0 - - -, f 5;
#X floatatom 1812 952 5 0 0 0 - - -, f 5;
#X floatatom 1902 932 5 0 0 0 - - -, f 5;
#X obj 1007 669 tgl 15 0 empty empty empty 17 7 0 10 -262144 -1 -1
1 1;
#X floatatom 128 61 5 0 0 0 - - -, f 5;
#X obj 411 459 +;
#X obj 420 402 bng 15 250 50 0 empty empty empty 17 7 0 10 -262144
-1 -1;
#X floatatom 411 425 5 0 0 0 - - -, f 5;
#X obj 51 461 +;
#X obj 60 404 bng 15 250 50 0 empty empty empty 17 7 0 10 -262144 -1
-1;
#X floatatom 51 427 5 0 0 0 - - -, f 5;
#X obj 165 461 +;
#X obj 174 404 bng 15 250 50 0 empty empty empty 17 7 0 10 -262144
-1 -1;
#X floatatom 165 427 5 0 0 0 - - -, f 5;
#X obj 290 458 +;
#X obj 299 401 bng 15 250 50 0 empty empty empty 17 7 0 10 -262144
-1 -1;
#X floatatom 290 424 5 0 0 0 - - -, f 5;
#N canvas 870 880 452 326 MPK_pots 0;
#X obj 39 -38 ctlin 1;
#X floatatom 39 12 5 0 0 0 - - -, f 5;
#X obj 39 35 s p1;
#X floatatom 85 12 5 0 0 0 - - -, f 5;
#X obj 85 35 s pl1;
#X floatatom 299 12 5 0 0 0 - - -, f 5;
#X floatatom 345 12 5 0 0 0 - - -, f 5;
#X floatatom 39 122 5 0 0 0 - - -, f 5;
#X floatatom 85 122 5 0 0 0 - - -, f 5;
#X floatatom 169 122 5 0 0 0 - - -, f 5;
#X floatatom 215 122 5 0 0 0 - - -, f 5;
#X floatatom 299 122 5 0 0 0 - - -, f 5;
#X floatatom 345 122 5 0 0 0 - - -, f 5;
#X floatatom 169 12 5 0 0 0 - - -, f 5;
#X floatatom 215 12 5 0 0 0 - - -, f 5;
#X obj 169 -38 ctlin 2;
#X obj 299 -38 ctlin 3;
#X obj 299 72 ctlin 7;
#X obj 169 72 ctlin 6;
#X obj 39 72 ctlin 5;
#X floatatom 429 12 5 0 0 0 - - -, f 5;
#X floatatom 475 12 5 0 0 0 - - -, f 5;
#X floatatom 429 122 5 0 0 0 - - -, f 5;
#X floatatom 475 122 5 0 0 0 - - -, f 5;
#X obj 429 -38 ctlin 4;
#X obj 429 72 ctlin 8;
#X obj 169 35 s p2;
#X obj 215 35 s pl2;
#X obj 299 35 s p3;
#X obj 345 35 s pl3;
#X obj 429 35 s p4;
#X obj 475 35 s pl4;
#X obj 39 145 s p5;
#X obj 85 145 s pl5;
#X obj 169 145 s p6;
#X obj 215 145 s pl6;
#X obj 299 145 s p7;
#X obj 345 145 s pl7;
#X obj 429 145 s p8;
#X obj 475 145 s pl8;
#X obj 85 -12 logizer;
#X obj 215 -12 logizer;
#X obj 345 -12 logizer;
#X obj 345 98 logizer;
#X obj 215 98 logizer;
#X obj 85 98 logizer;
#X obj 475 98 logizer;
#X obj 475 -12 logizer;
#X connect 0 0 1 0;
#X connect 0 0 40 0;
#X connect 1 0 2 0;
#X connect 3 0 4 0;
#X connect 5 0 28 0;
#X connect 6 0 29 0;
#X connect 7 0 32 0;
#X connect 8 0 33 0;
#X connect 9 0 34 0;
#X connect 10 0 35 0;
#X connect 11 0 36 0;
#X connect 12 0 37 0;
#X connect 13 0 26 0;
#X connect 14 0 27 0;
#X connect 15 0 13 0;
#X connect 15 0 41 0;
#X connect 16 0 5 0;
#X connect 16 0 42 0;
#X connect 17 0 11 0;
#X connect 17 0 43 0;
#X connect 18 0 9 0;
#X connect 18 0 44 0;
#X connect 19 0 7 0;
#X connect 19 0 45 0;
#X connect 20 0 30 0;
#X connect 21 0 31 0;
#X connect 22 0 38 0;
#X connect 23 0 39 0;
#X connect 24 0 20 0;
#X connect 24 0 47 0;
#X connect 25 0 22 0;
#X connect 25 0 46 0;
#X connect 40 0 3 0;
#X connect 41 0 14 0;
#X connect 42 0 6 0;
#X connect 43 0 12 0;
#X connect 44 0 10 0;
#X connect 45 0 8 0;
#X connect 46 0 23 0;
#X connect 47 0 21 0;
#X restore 1176 93 pd MPK_pots;
#X obj 52 695 r pl1;
#X obj 604 28 r p8;
#X obj 659 67 +;
#X obj 722 667 r pl5;
#X floatatom 721 693 5 0 0 0 - - -, f 5;
#X obj 721 719 expr $f1/127*2;
#X obj 224 109 r pl2;
#X obj 413 116 r pl3;
#X obj 413 159 + 1;
#X obj 224 150 + 1;
#X obj 946 188 + 1;
#X obj 892 188 + 1;
#X obj 892 144 r pl6;
#X obj 946 144 r pl7;
#X obj 1034 512 ctlin 17;
#X obj 241 357 * 1;
#X obj 522 113 r p4;
#X obj 507 590 ctlin 21;
#X obj 509 645 ctlin 22;
#X obj 567 689 ctlin 23;
#X obj 1547 4 ctlin 14;
#X obj 1564 99 ctlin 15;
#X obj 1621 292 ctlin 16;
#X obj 1553 42 moses 1;
#X obj 1572 140 moses 1;
#X obj 1632 329 moses 1;
#X obj 1605 233 moses 1;
#X obj 1597 192 ctlin 13;
#X obj 1500 188 tgl 15 0 empty empty empty 17 7 0 10 -262144 -1 -1
0 1;
#X obj 1499 386 tgl 15 0 empty empty empty 17 7 0 10 -262144 -1 -1
1 1;
#X obj 1639 640 tgl 15 0 empty empty empty 17 7 0 10 -262144 -1 -1
0 1;
#X floatatom 1428 156 5 0 0 0 - - -, f 5;
#X floatatom 1270 296 5 0 0 0 - - -, f 5;
#X floatatom 1471 523 5 0 0 0 - - -, f 5;
#X floatatom 1543 533 5 0 0 0 - - -, f 5;
#X floatatom 1604 508 5 0 0 0 - - -, f 5;
#X floatatom 1668 481 5 0 0 0 - - -, f 5;
#X floatatom 1352 158 5 0 0 0 - - -, f 5;
#X floatatom 1424 259 5 0 0 0 - - -, f 5;
#X obj 1303 617 vsl 15 128 0.02 2 1 1 empty empty empty 0 -9 0 10 -262144
-1 -1 0 1;
#X floatatom 1317 773 5 0 0 0 - - -, f 5;
#X obj 1238 523 r pl5;
#X floatatom 1237 549 5 0 0 0 - - -, f 5;
#X obj 1237 575 expr $f1/127*2;
#X obj 1428 778 *~;
#X obj 1532 783 *~;
#X obj 1282 186 logizer;
#X obj 1369 186 logizer;
#X obj 1270 324 logizer;
#X obj 1437 289 logizer;
#X obj 1470 576 logizer;
#X obj 1539 563 logizer;
#X obj 1597 558 logizer;
#X obj 1664 526 logizer;
#X floatatom 1482 339 5 0 0 0 - - -, f 5;
#X obj 1257 759 - 0.02;
#X obj 742 899 - 0.02;
#X obj 41 953 - 0.02;
#X obj 983 769 tabwrite~ out_array;
#X connect 0 0 6 0;
#X connect 1 0 2 0;
#X connect 1 1 5 0;
#X connect 2 0 124 0;
#X connect 4 0 51 0;
#X connect 5 0 4 1;
#X connect 6 0 1 0;
#X connect 6 1 7 0;
#X connect 6 2 11 0;
#X connect 6 3 15 0;
#X connect 7 0 8 0;
#X connect 7 1 10 0;
#X connect 8 0 127 0;
#X connect 9 0 51 0;
#X connect 10 0 9 1;
#X connect 11 0 12 0;
#X connect 11 1 14 0;
#X connect 12 0 130 0;
#X connect 13 0 51 0;
#X connect 14 0 13 1;
#X connect 15 0 16 0;
#X connect 15 1 18 0;
#X connect 16 0 121 0;
#X connect 17 0 51 0;
#X connect 18 0 17 1;
#X connect 19 0 0 0;
#X connect 19 1 0 1;
#X connect 19 2 0 2;
#X connect 20 0 4 0;
#X connect 21 0 9 0;
#X connect 22 0 13 0;
#X connect 23 0 17 0;
#X connect 24 1 60 0;
#X connect 24 1 59 0;
#X connect 27 0 26 0;
#X connect 28 0 26 0;
#X connect 28 0 52 0;
#X connect 29 0 26 0;
#X connect 30 0 26 0;
#X connect 31 0 54 0;
#X connect 33 0 19 0;
#X connect 33 1 92 0;
#X connect 34 0 63 0;
#X connect 35 0 36 0;
#X connect 35 0 109 0;
#X connect 35 1 39 0;
#X connect 36 0 97 0;
#X connect 36 0 99 0;
#X connect 38 0 103 0;
#X connect 39 0 38 1;
#X connect 41 0 190 0;
#X connect 42 0 134 0;
#X connect 42 1 94 0;
#X connect 43 0 34 0;
#X connect 43 1 34 1;
#X connect 43 2 34 2;
#X connect 44 0 3 0;
#X connect 44 0 3 1;
#X connect 45 0 37 1;
#X connect 45 0 37 0;
#X connect 46 0 188 0;
#X connect 47 0 189 0;
#X connect 48 0 44 1;
#X connect 49 0 45 1;
#X connect 50 0 45 0;
#X connect 51 0 69 0;
#X connect 52 0 55 0;
#X connect 52 0 56 0;
#X connect 53 0 55 1;
#X connect 54 0 53 0;
#X connect 54 0 56 1;
#X connect 55 0 29 0;
#X connect 56 0 57 0;
#X connect 58 0 62 0;
#X connect 59 0 58 0;
#X connect 60 0 61 0;
#X connect 61 0 62 1;
#X connect 62 0 176 0;
#X connect 62 1 177 0;
#X connect 63 0 35 0;
#X connect 64 0 52 0;
#X connect 65 0 66 0;
#X connect 65 1 66 1;
#X connect 66 0 68 0;
#X connect 67 0 65 0;
#X connect 68 0 31 0;
#X connect 69 0 75 0;
#X connect 70 0 44 0;
#X connect 71 0 69 1;
#X connect 72 0 69 2;
#X connect 73 0 74 0;
#X connect 74 0 47 0;
#X connect 75 0 78 0;
#X connect 75 0 78 1;
#X connect 76 0 75 1;
#X connect 77 0 75 2;
#X connect 78 0 70 0;
#X connect 78 1 70 0;
#X connect 79 0 78 2;
#X connect 80 0 78 3;
#X connect 81 0 78 4;
#X connect 81 0 78 5;
#X connect 82 0 71 0;
#X connect 83 0 72 0;
#X connect 84 0 77 0;
#X connect 85 0 76 0;
#X connect 86 0 79 0;
#X connect 87 0 80 0;
#X connect 88 0 81 0;
#X connect 89 0 69 3;
#X connect 90 0 75 3;
#X connect 91 0 78 6;
#X connect 92 0 19 1;
#X connect 92 0 118 0;
#X connect 93 0 92 1;
#X connect 94 0 43 1;
#X connect 95 0 94 1;
#X connect 96 0 98 0;
#X connect 97 0 100 0;
#X connect 98 0 97 1;
#X connect 99 0 38 0;
#X connect 100 0 38 0;
#X connect 101 0 102 0;
#X connect 102 0 38 0;
#X connect 103 0 50 0;
#X connect 104 0 103 1;
#X connect 105 0 103 2;
#X connect 106 0 104 0;
#X connect 107 0 105 0;
#X connect 108 0 103 3;
#X connect 109 0 101 0;
#X connect 110 0 112 0;
#X connect 110 1 113 0;
#X connect 110 2 114 0;
#X connect 111 0 115 0;
#X connect 111 1 116 0;
#X connect 117 0 41 0;
#X connect 119 0 23 0;
#X connect 120 0 121 0;
#X connect 121 0 119 0;
#X connect 122 0 20 0;
#X connect 123 0 124 0;
#X connect 124 0 122 0;
#X connect 125 0 21 0;
#X connect 126 0 127 0;
#X connect 127 0 125 0;
#X connect 128 0 22 0;
#X connect 129 0 130 0;
#X connect 130 0 128 0;
#X connect 132 0 73 0;
#X connect 133 0 134 1;
#X connect 134 0 43 0;
#X connect 135 0 136 0;
#X connect 136 0 137 0;
#X connect 137 0 46 0;
#X connect 138 0 141 0;
#X connect 139 0 140 0;
#X connect 140 0 18 4;
#X connect 140 0 14 4;
#X connect 140 0 10 4;
#X connect 140 0 5 4;
#X connect 141 0 5 1;
#X connect 141 0 10 1;
#X connect 141 0 14 1;
#X connect 141 0 18 1;
#X connect 142 0 39 4;
#X connect 143 0 39 1;
#X connect 144 0 143 0;
#X connect 145 0 142 0;
#X connect 146 0 108 0;
#X connect 147 0 119 1;
#X connect 147 0 120 0;
#X connect 147 0 129 0;
#X connect 147 0 126 0;
#X connect 147 0 123 0;
#X connect 147 0 122 1;
#X connect 147 0 125 1;
#X connect 147 0 128 1;
#X connect 148 0 147 0;
#X connect 149 0 89 0;
#X connect 150 0 90 0;
#X connect 151 0 91 0;
#X connect 152 0 155 0;
#X connect 153 0 156 0;
#X connect 154 0 157 0;
#X connect 155 1 28 0;
#X connect 156 1 30 0;
#X connect 157 1 27 0;
#X connect 158 1 67 0;
#X connect 159 0 158 0;
#X connect 160 0 60 3;
#X connect 160 0 59 3;
#X connect 161 0 61 3;
#X connect 161 0 58 3;
#X connect 162 0 62 6;
#X connect 163 0 179 0;
#X connect 164 0 180 0;
#X connect 165 0 182 0;
#X connect 166 0 183 0;
#X connect 167 0 184 0;
#X connect 168 0 185 0;
#X connect 169 0 178 0;
#X connect 170 0 181 0;
#X connect 171 0 187 0;
#X connect 172 0 176 1;
#X connect 172 0 177 1;
#X connect 173 0 174 0;
#X connect 174 0 175 0;
#X connect 175 0 171 0;
#X connect 176 0 25 0;
#X connect 177 0 25 1;
#X connect 178 0 59 1;
#X connect 178 0 60 1;
#X connect 179 0 60 2;
#X connect 179 0 59 2;
#X connect 180 0 61 1;
#X connect 180 0 58 1;
#X connect 181 0 61 2;
#X connect 181 0 58 2;
#X connect 181 0 186 0;
#X connect 182 0 62 2;
#X connect 183 0 62 3;
#X connect 184 0 62 4;
#X connect 185 0 62 5;
#X connect 187 0 172 0;
#X connect 188 0 49 0;
#X connect 189 0 48 0;
