#N canvas 456 798 1330 866 12;
#X floatatom 254 102 5 0 0 0 - - -, f 5;
#X obj 155 65 hsl 128 15 0 1 0 0 empty empty empty -2 -8 0 10 -262144
-1 -1 7900 1;
#X floatatom 498 103 5 0 0 0 - - -, f 5;
#X obj 396 62 hsl 147 24 0 1 0 0 empty empty empty -2 -8 0 10 -262144
-1 -1 8852 1;
#X obj 16 199 freeverb~;
#X msg 155 101 roomsize \$1;
#X floatatom 697 105 5 0 0 0 - - -, f 5;
#X obj 615 70 hsl 147 24 0.1 5 0 0 empty empty empty -2 -8 0 10 -262144
-1 -1 6975 1;
#X msg 395 103 damping \$1;
#X msg 615 104 width \$1;
#X msg 267 403 freeze \$1;
#X msg 169 399 bypass \$1;
#X obj 270 372 tgl 15 0 empty empty empty 17 7 0 10 -262144 -1 -1 0
1;
#X obj 168 368 tgl 15 0 empty empty empty 17 7 0 10 -262144 -1 -1 0
1;
#X floatatom 1029 122 5 0 0 0 - - -, f 5;
#X obj 800 69 hsl 147 24 0 1 0 0 empty empty empty -2 -8 0 10 -262144
-1 -1 7128 1;
#X msg 881 120 dry \$1;
#X msg 807 119 wet \$1;
#X obj 942 121 expr 1-$f1;
#X obj 19 12 inlet~;
#X obj 69 12 inlet~;
#X obj 14 367 outlet~;
#X obj 74 367 outlet~;
#X obj 159 12 inlet;
#X obj 379 12 inlet;
#X obj 609 12 inlet;
#X obj 799 12 inlet;
#X obj 167 38 expr $f1/127;
#X obj 395 36 expr $f1/127;
#X obj 800 41 expr $f1/127;
#X obj 611 39 expr $f1/127*5;
#X obj 1183 16 inlet;
#X obj 3 59 spigot~;
#X obj 52 103 spigot~;
#X connect 1 0 0 0;
#X connect 1 0 5 0;
#X connect 3 0 2 0;
#X connect 3 0 8 0;
#X connect 3 0 4 0;
#X connect 4 0 21 0;
#X connect 4 1 22 0;
#X connect 5 0 4 0;
#X connect 7 0 6 0;
#X connect 7 0 9 0;
#X connect 9 0 4 0;
#X connect 10 0 4 0;
#X connect 11 0 4 0;
#X connect 12 0 10 0;
#X connect 13 0 11 0;
#X connect 15 0 14 0;
#X connect 15 0 17 0;
#X connect 15 0 18 0;
#X connect 16 0 4 0;
#X connect 17 0 4 0;
#X connect 18 0 16 0;
#X connect 19 0 32 0;
#X connect 20 0 33 0;
#X connect 23 0 27 0;
#X connect 24 0 28 0;
#X connect 25 0 30 0;
#X connect 26 0 29 0;
#X connect 27 0 1 0;
#X connect 28 0 3 0;
#X connect 29 0 15 0;
#X connect 30 0 7 0;
#X connect 31 0 33 1;
#X connect 31 0 32 1;
#X connect 32 0 21 0;
#X connect 32 1 4 0;
#X connect 33 0 22 0;
#X connect 33 1 4 1;
