#N canvas 845 698 1090 859 12;
#X obj 113 310 dac~;
#X obj 81 193 clip~ -0.5 0.5;
#X obj 109 43 adc~;
#X obj 239 193 clip~ -0.5 0.5;
#X floatatom 278 92 5 0 0 0 - - -, f 5;
#X obj 363 43 hsl 128 15 1 100 1 0 empty empty empty -2 -8 0 10 -262144
-1 -1 0 1;
#X obj 126 120 *~;
#X obj 60 138 *~, f 2;
#X floatatom 344 277 5 0 0 0 - - -, f 5;
#X obj 412 224 hsl 147 24 0.1 1 1 0 empty empty empty -2 -8 0 10 -262144
-1 -1 0 1;
#X obj 189 284 *~, f 2;
#X obj 59 273 *~, f 2;
#X connect 1 0 11 0;
#X connect 2 0 7 0;
#X connect 2 1 6 0;
#X connect 3 0 10 0;
#X connect 4 0 6 1;
#X connect 4 0 7 1;
#X connect 5 0 4 0;
#X connect 6 0 3 0;
#X connect 7 0 1 0;
#X connect 8 0 10 1;
#X connect 9 0 8 0;
#X connect 9 0 11 1;
#X connect 10 0 0 1;
#X connect 11 0 0 0;
