#N canvas 512 753 422 396 12;
#X obj 84 116 osc~;
#X obj 85 20 inlet;
#X obj 167 17 inlet;
#X obj 85 234 outlet~;
#X msg 16 76 440;
#X obj 15 21 loadbang;
#X connect 0 0 3 0;
#X connect 1 0 0 0;
#X connect 2 0 0 1;
#X connect 4 0 0 0;
#X connect 5 0 4 0;
