#N canvas 437 127 1300 911 10;
#X obj 541 14 notein;
#X obj 141 848 ctlout;
#X obj 352 847 noteout;
#X floatatom 525 115 5 0 0 0 - - -, f 5;
#X floatatom 338 790 5 0 0 0 - - -, f 5;
#X floatatom 573 120 5 0 0 0 - - -, f 5;
#X floatatom 385 763 5 0 0 0 - - -, f 5;
#X floatatom 430 781 5 0 0 0 - - -, f 5;
#X floatatom 635 119 5 0 0 0 - - -, f 5;
#X floatatom 107 798 5 0 0 0 - - -, f 5;
#X floatatom 154 775 5 0 0 0 - - -, f 5;
#X floatatom 183 802 5 0 0 0 - - -, f 5;
#X msg 160 715 43;
#X floatatom 293 213 5 0 0 0 - - -, f 5;
#X obj 230 319 t f f;
#X obj 231 282 i;
#X obj 204 242 t f f;
#X obj 179 356 -;
#X obj 154 397 > 0.5;
#X obj 185 431 +;
#X obj 185 507 change;
#X obj 524 853 ctlout;
#X msg 548 754 7;
#X obj 185 469 + 63;
#X obj 293 138 - 63;
#X obj 293 176 * 2.5;
#X obj 198 17 ctlin;
#X obj 301 14 pgmin;
#X obj 62 15 notein;
#X floatatom 290 51 5 0 0 0 - - -, f 5;
#X floatatom 327 51 5 0 0 0 - - -, f 5;
#X floatatom 161 55 5 0 0 0 - - -, f 5;
#X floatatom 204 55 5 0 0 0 - - -, f 5;
#X floatatom 245 55 5 0 0 0 - - -, f 5;
#X floatatom 23 53 5 0 0 0 - - -, f 5;
#X floatatom 65 54 5 0 0 0 - - -, f 5;
#X floatatom 106 53 5 0 0 0 - - -, f 5;
#X floatatom 928 417 5 0 0 0 - - -, f 5;
#X obj 931 864 ctlout;
#X obj 842 62 ctlin 1;
#X obj 956 343 ctlin 2;
#X msg 954 580 42;
#X floatatom 843 133 5 0 0 0 - - -, f 5;
#X floatatom 797 455 5 0 0 0 - - -, f 5;
#X obj 846 197 div 13;
#X obj 845 282 + 1;
#X obj 748 173 bang;
#X floatatom 574 810 5 0 0 0 - - -, f 5;
#X floatatom 490 801 5 0 0 0 - - -, f 5;
#X connect 0 0 3 0;
#X connect 0 1 5 0;
#X connect 0 2 8 0;
#X connect 3 0 4 0;
#X connect 3 0 12 0;
#X connect 3 0 22 0;
#X connect 3 0 24 0;
#X connect 4 0 2 0;
#X connect 5 0 6 0;
#X connect 5 0 48 0;
#X connect 6 0 2 1;
#X connect 7 0 2 2;
#X connect 8 0 46 0;
#X connect 9 0 1 0;
#X connect 10 0 1 1;
#X connect 11 0 1 2;
#X connect 12 0 10 0;
#X connect 13 0 16 0;
#X connect 14 0 17 1;
#X connect 14 1 19 1;
#X connect 15 0 14 0;
#X connect 16 0 17 0;
#X connect 16 1 15 0;
#X connect 17 0 18 0;
#X connect 18 0 19 0;
#X connect 19 0 23 0;
#X connect 20 0 9 0;
#X connect 22 0 21 1;
#X connect 23 0 20 0;
#X connect 24 0 25 0;
#X connect 25 0 13 0;
#X connect 26 0 31 0;
#X connect 26 1 32 0;
#X connect 26 2 33 0;
#X connect 27 0 29 0;
#X connect 27 1 30 0;
#X connect 28 0 34 0;
#X connect 28 1 35 0;
#X connect 28 2 36 0;
#X connect 37 0 41 0;
#X connect 37 0 38 0;
#X connect 39 0 42 0;
#X connect 40 0 37 0;
#X connect 41 0 38 1;
#X connect 42 0 44 0;
#X connect 43 0 7 0;
#X connect 43 0 11 0;
#X connect 43 0 47 0;
#X connect 43 0 38 2;
#X connect 44 0 45 0;
#X connect 45 0 43 0;
#X connect 46 0 43 0;
#X connect 47 0 21 2;
#X connect 48 0 21 0;
