#N canvas 32 72 1982 913 10;
#X obj 141 848 ctlout;
#X obj 352 847 noteout;
#X floatatom 525 72 5 0 0 0 - - -, f 5;
#X floatatom 338 790 5 0 0 0 - - -, f 5;
#X floatatom 586 69 5 0 0 0 - - -, f 5;
#X floatatom 385 763 5 0 0 0 - - -, f 5;
#X floatatom 430 781 5 0 0 0 - - -, f 5;
#X floatatom 107 798 5 0 0 0 - - -, f 5;
#X floatatom 183 802 5 0 0 0 - - -, f 5;
#X msg 160 715 43;
#X floatatom 293 213 5 0 0 0 - - -, f 5;
#X obj 230 319 t f f;
#X obj 231 282 i;
#X obj 204 242 t f f;
#X obj 179 356 -;
#X obj 154 397 > 0.5;
#X obj 185 431 +;
#X obj 185 507 change;
#X obj 524 853 ctlout;
#X msg 548 754 7;
#X obj 185 469 + 63;
#X obj 293 138 - 63;
#X obj 293 176 * 2.5;
#X obj 198 17 ctlin;
#X obj 301 14 pgmin;
#X obj 62 15 notein;
#X floatatom 290 51 5 0 0 0 - - -, f 5;
#X floatatom 327 51 5 0 0 0 - - -, f 5;
#X floatatom 161 55 5 0 0 0 - - -, f 5;
#X floatatom 204 55 5 0 0 0 - - -, f 5;
#X floatatom 245 55 5 0 0 0 - - -, f 5;
#X floatatom 23 53 5 0 0 0 - - -, f 5;
#X floatatom 65 54 5 0 0 0 - - -, f 5;
#X floatatom 106 53 5 0 0 0 - - -, f 5;
#X floatatom 747 760 5 0 0 0 - - -, f 5;
#X obj 931 864 ctlout;
#X obj 842 62 ctlin 1;
#X obj 741 717 ctlin 2;
#X msg 858 780 42;
#X floatatom 843 133 5 0 0 0 - - -, f 5;
#X floatatom 726 363 5 0 0 0 - - -, f 5;
#X obj 846 197 div 13;
#X obj 845 282 + 1;
#X floatatom 574 810 5 0 0 0 - - -, f 5;
#X floatatom 490 801 5 0 0 0 - - -, f 5;
#X obj 1128 97 ctlin 3;
#X obj 1178 425 ctlin 4;
#X obj 1140 603 ctlin 7;
#X obj 1225 611 ctlin 8;
#X obj 1068 863 ctlout;
#X obj 1146 862 ctlout;
#X obj 1182 543 ctlout;
#X obj 1053 412 ctlout;
#X floatatom 1032 138 5 0 0 0 - - -, f 5;
#X floatatom 1126 141 5 0 0 0 - - -, f 5;
#X floatatom 1177 465 5 0 0 0 - - -, f 5;
#X floatatom 1130 655 5 0 0 0 - - -, f 5;
#X floatatom 1232 658 5 0 0 0 - - -, f 5;
#X msg 1106 276 40;
#X msg 1216 489 41;
#X msg 1140 733 47;
#X msg 1222 762 48;
#X obj 659 113 max;
#X obj 1037 90 ctlin 6;
#X obj 1820 66 ctlin 5;
#X floatatom 1813 123 5 0 0 0 - - -, f 5;
#X obj 1813 144 div 13;
#X obj 1815 183 + 1;
#X obj 1602 32 notein 2;
#X obj 1432 868 ctlout;
#X floatatom 1398 818 5 0 0 0 - - -, f 5;
#X floatatom 1474 822 5 0 0 0 - - -, f 5;
#X msg 1451 735 43;
#X obj 1611 797 noteout;
#X floatatom 1597 740 5 0 0 0 - - -, f 5;
#X floatatom 1644 713 5 0 0 0 - - -, f 5;
#X floatatom 1689 731 5 0 0 0 - - -, f 5;
#X obj 1783 803 ctlout;
#X msg 1807 704 7;
#X floatatom 1833 760 5 0 0 0 - - -, f 5;
#X floatatom 1749 751 5 0 0 0 - - -, f 5;
#X obj 1242 217 max;
#X floatatom 1720 283 5 0 0 0 - - -, f 5;
#X obj 541 14 notein 1;
#X floatatom 1464 220 5 0 0 0 - - -, f 5;
#X obj 1472 352 t f f;
#X obj 1473 315 i;
#X obj 1446 275 t f f;
#X obj 1421 389 -;
#X obj 1396 430 > 0.5;
#X obj 1427 464 +;
#X obj 1427 540 change;
#X obj 1427 502 + 63;
#X obj 1464 145 - 63;
#X obj 1464 183 * 2.5;
#X floatatom 1676 77 5 0 0 0 - - -, f 5;
#X obj 665 265 spigot;
#X obj 704 196 > 0;
#X floatatom 654 327 5 0 0 0 - - -, f 5;
#X obj 1257 336 spigot;
#X obj 1296 267 > 0;
#X obj 570 260 spigot;
#X obj 616 205 > 0;
#X obj 1378 128 spigot;
#X obj 1424 73 > 0;
#X connect 2 0 3 0;
#X connect 2 0 9 0;
#X connect 2 0 19 0;
#X connect 2 0 101 0;
#X connect 3 0 1 0;
#X connect 4 0 5 0;
#X connect 4 0 62 0;
#X connect 4 0 102 0;
#X connect 5 0 1 1;
#X connect 6 0 1 2;
#X connect 7 0 0 0;
#X connect 8 0 0 2;
#X connect 9 0 0 1;
#X connect 10 0 13 0;
#X connect 11 0 14 1;
#X connect 11 1 16 1;
#X connect 12 0 11 0;
#X connect 13 0 14 0;
#X connect 13 1 12 0;
#X connect 14 0 15 0;
#X connect 15 0 16 0;
#X connect 16 0 20 0;
#X connect 17 0 7 0;
#X connect 19 0 18 1;
#X connect 20 0 17 0;
#X connect 21 0 22 0;
#X connect 22 0 10 0;
#X connect 23 0 28 0;
#X connect 23 1 29 0;
#X connect 23 2 30 0;
#X connect 24 0 26 0;
#X connect 24 1 27 0;
#X connect 25 0 31 0;
#X connect 25 1 32 0;
#X connect 25 2 33 0;
#X connect 34 0 38 0;
#X connect 34 0 35 0;
#X connect 36 0 39 0;
#X connect 37 0 34 0;
#X connect 38 0 35 1;
#X connect 39 0 41 0;
#X connect 40 0 6 0;
#X connect 40 0 8 0;
#X connect 40 0 43 0;
#X connect 40 0 35 2;
#X connect 40 0 52 2;
#X connect 40 0 49 2;
#X connect 40 0 51 2;
#X connect 40 0 50 2;
#X connect 41 0 42 0;
#X connect 42 0 40 0;
#X connect 43 0 18 2;
#X connect 44 0 18 0;
#X connect 45 0 54 0;
#X connect 46 0 55 0;
#X connect 47 0 56 0;
#X connect 48 0 57 0;
#X connect 53 0 62 1;
#X connect 53 0 81 1;
#X connect 54 0 52 0;
#X connect 54 0 58 0;
#X connect 55 0 51 0;
#X connect 55 0 59 0;
#X connect 56 0 49 0;
#X connect 56 0 60 0;
#X connect 57 0 50 0;
#X connect 57 0 61 0;
#X connect 58 0 52 1;
#X connect 59 0 51 1;
#X connect 60 0 49 1;
#X connect 61 0 50 1;
#X connect 62 0 97 0;
#X connect 62 0 96 0;
#X connect 63 0 53 0;
#X connect 64 0 65 0;
#X connect 65 0 66 0;
#X connect 66 0 67 0;
#X connect 67 0 82 0;
#X connect 68 0 74 0;
#X connect 68 0 72 0;
#X connect 68 0 78 0;
#X connect 68 0 103 0;
#X connect 68 1 75 0;
#X connect 68 1 95 0;
#X connect 70 0 69 0;
#X connect 71 0 69 2;
#X connect 72 0 69 1;
#X connect 74 0 73 0;
#X connect 75 0 73 1;
#X connect 76 0 73 2;
#X connect 78 0 77 1;
#X connect 79 0 77 2;
#X connect 80 0 77 0;
#X connect 81 0 80 0;
#X connect 81 0 99 0;
#X connect 81 0 100 0;
#X connect 82 0 71 0;
#X connect 82 0 76 0;
#X connect 82 0 79 0;
#X connect 83 0 2 0;
#X connect 83 1 4 0;
#X connect 84 0 87 0;
#X connect 85 0 88 1;
#X connect 85 1 90 1;
#X connect 86 0 85 0;
#X connect 87 0 88 0;
#X connect 87 1 86 0;
#X connect 88 0 89 0;
#X connect 89 0 90 0;
#X connect 90 0 92 0;
#X connect 91 0 70 0;
#X connect 92 0 91 0;
#X connect 93 0 94 0;
#X connect 94 0 84 0;
#X connect 95 0 81 0;
#X connect 95 0 104 0;
#X connect 96 0 98 0;
#X connect 97 0 96 1;
#X connect 98 0 44 0;
#X connect 99 0 80 0;
#X connect 100 0 99 1;
#X connect 101 0 21 0;
#X connect 102 0 101 1;
#X connect 103 0 93 0;
#X connect 104 0 103 1;
