#N canvas 91 276 546 521 12;
#X obj 152 75 metro 500;
#X obj 157 124 random 80;
#X obj 157 207 + 10;
#X msg 283 197 320;
#X floatatom 132 147 5 0 0 0 - - -, f 5;
#X obj 147 249 makenote;
#X obj 144 392 noteout;
#X floatatom 199 335 5 0 0 0 - - -, f 5;
#X floatatom 115 327 5 0 0 0 - - -, f 5;
#X msg 219 172 127;
#X obj 87 17 bng 15 250 50 1 empty empty empty 17 7 0 10 -262144 -1
-1;
#X msg 258 354 0;
#X obj 349 42 bng 15 250 50 0 empty empty empty 17 7 0 10 -262144 -1
-1;
#X floatatom 347 121 5 0 0 0 - - -, f 5;
#X obj 347 92 expr (4*(5-2))/4;
#X connect 0 0 1 0;
#X connect 1 0 4 0;
#X connect 2 0 5 0;
#X connect 3 0 5 2;
#X connect 4 0 2 0;
#X connect 5 0 8 0;
#X connect 5 1 7 0;
#X connect 7 0 6 1;
#X connect 8 0 6 0;
#X connect 9 0 5 1;
#X connect 10 0 0 0;
#X connect 10 0 9 0;
#X connect 10 0 3 0;
#X connect 10 0 11 0;
#X connect 11 0 6 2;
#X connect 12 0 14 0;
#X connect 14 0 13 0;
