#N canvas 846 156 1088 858 12;
#X obj 90 22 notein 1;
#X text 211 102 create polyphonic synth;
#X obj 109 168 pack 0 0 0;
#X obj 137 314 unpack 0 0;
#X obj 138 349 mtof;
#X obj 138 382 phasor~;
#X obj 155 712 *~;
#X obj 519 649 ctlin 5;
#X obj 519 676 / 64;
#X obj 204 352 / 127;
#X obj 500 722 *~;
#X obj 495 807 dac~;
#X obj 996 620 metro 100;
#X obj 995 577 tgl 15 0 empty empty empty 17 7 0 10 -262144 -1 -1 1
1;
#X floatatom 94 62 5 0 0 0 - - -, f 5;
#X floatatom 144 60 5 0 0 0 - - -, f 5;
#X obj 851 646 tabwrite~ polyarray;
#N canvas 0 0 450 300 (subpatch) 0;
#X array polyarray 100 float 3 black black;
#A 0 0 0 0 0 0 0 0 0 0 0 0 0 0 0 0 0 0 0 0 0 0 0 0 0 0 0 0 0 0 0 0
0 0 0 0 0 0 0 0 0 0 0 0 0 0 0 0 0 0 0 0 0 0 0 0 0 0 0 0 0 0 0 0 0 0
0 0 0 0 0 0 0 0 0 0 0 0 0 0 0 0 0 0 0 0 0 0 0 0 0 0 0 0 0 0 0 0 0 0
0;
#X coords 0 1 100 -1 200 140 1;
#X restore 852 680 graph;
#X text 519 618 volume;
#X obj 116 212 route 1 2 3;
#X obj 107 107 poly 3 1;
#X obj 253 286 unpack 0 0;
#X obj 305 345 mtof;
#X obj 365 414 phasor~;
#X obj 374 688 *~;
#X obj 510 22 ctlin 6;
#X obj 502 122 / 64;
#X obj 365 376 *~;
#X floatatom 388 228 5 0 0 0 - - -, f 5;
#X obj 270 535 vline~;
#X obj 155 476 tgl 15 0 empty empty empty 17 7 0 10 -262144 -1 -1 1
1;
#X obj 162 524 metro 100;
#X obj 230 589 snapshot~;
#X floatatom 279 754 5 0 0 0 - - -, f 5;
#X msg 193 472 1 1000 \, 0.7 1000 1000 \, 0 1000 3000;
#X obj 262 633 *~;
#X obj 280 689 snapshot~;
#X floatatom 181 628 5 0 0 0 - - -, f 5;
#X connect 0 0 14 0;
#X connect 0 1 15 0;
#X connect 2 0 19 0;
#X connect 3 0 4 0;
#X connect 3 1 9 0;
#X connect 4 0 5 0;
#X connect 5 0 6 0;
#X connect 6 0 10 0;
#X connect 7 0 8 0;
#X connect 8 0 10 1;
#X connect 9 0 34 0;
#X connect 10 0 11 0;
#X connect 10 0 11 1;
#X connect 10 0 16 0;
#X connect 12 0 16 0;
#X connect 13 0 12 0;
#X connect 14 0 20 0;
#X connect 15 0 20 1;
#X connect 19 0 3 0;
#X connect 19 0 21 0;
#X connect 19 1 3 0;
#X connect 19 1 21 0;
#X connect 19 2 3 0;
#X connect 19 2 21 0;
#X connect 20 0 2 0;
#X connect 20 1 2 1;
#X connect 20 2 2 2;
#X connect 21 0 22 0;
#X connect 22 0 27 0;
#X connect 23 0 24 0;
#X connect 24 0 10 0;
#X connect 25 0 26 0;
#X connect 26 0 28 0;
#X connect 27 0 23 0;
#X connect 28 0 27 1;
#X connect 29 0 32 0;
#X connect 30 0 31 0;
#X connect 31 0 32 0;
#X connect 32 0 35 0;
#X connect 32 0 37 0;
#X connect 34 0 29 0;
#X connect 35 0 36 0;
#X connect 36 0 33 0;
#X connect 37 0 6 1;
#X connect 37 0 24 1;
